# 3ds Max Wavefront OBJ Exporter v0.97b - (c)2007 guruware
# File Created: 12.08.2015 10:16:32

mtllib instrument.mtl

#
# object Box001
#

v  -19.3751 1.6648 42.1956
v  -19.3751 1.6648 -45.6868
v  29.8482 1.6648 -45.6868
v  29.8482 1.6648 42.1956
v  -19.3751 46.6957 42.1956
v  29.8482 46.6957 42.1956
v  29.8482 46.6957 -45.6868
v  -19.3751 46.6957 -45.6868
# 8 vertices

vn 0.0000 -1.0000 -0.0000
vn 0.0000 1.0000 -0.0000
vn 0.0000 0.0000 1.0000
vn 1.0000 0.0000 -0.0000
vn 0.0000 -0.0000 -1.0000
vn -1.0000 0.0000 -0.0000
# 6 vertex normals

vt 1.0000 0.0000 0.0000
vt 1.0000 1.0000 0.0000
vt 0.0000 1.0000 0.0000
vt 0.0000 0.0000 0.0000
# 4 texture coords

g Box001
usemtl 07___Default
s 2
f 1/1/1 2/2/1 3/3/1 4/4/1 
s 4
f 5/4/2 6/1/2 7/2/2 8/3/2 
s 8
f 1/4/3 4/1/3 6/2/3 5/3/3 
s 16
f 4/4/4 3/1/4 7/2/4 6/3/4 
s 32
f 3/4/5 2/1/5 8/2/5 7/3/5 
s 64
f 2/4/6 1/1/6 5/2/6 8/3/6 
# 6 polygons

#
# object Plane001
#

v  -21.0469 15.3981 -36.3737
v  -21.0469 7.3263 -36.3737
v  -21.0469 7.3263 -27.7040
v  -21.0469 15.3981 -27.7040
v  -21.0469 7.3263 -19.0344
v  -21.0469 15.3981 -19.0344
v  -21.0469 7.3263 -10.3647
v  -21.0469 15.3981 -10.3647
v  -21.0469 7.3263 -1.6951
v  -21.0469 15.3981 -1.6951
v  -21.0469 23.4698 -36.3737
v  -21.0469 23.4698 -27.7040
v  -21.0469 23.4698 -19.0344
v  -21.0469 23.4698 -10.3647
v  -21.0469 23.4698 -1.6951
v  -21.0469 31.5416 -36.3737
v  -21.0469 31.5416 -27.7040
v  -21.0469 31.5416 -19.0344
v  -21.0469 31.5416 -10.3647
v  -21.0469 31.5416 -1.6951
v  -21.0469 39.6133 -36.3737
v  -21.0469 39.6133 -27.7040
v  -21.0469 39.6133 -19.0344
v  -21.0469 39.6133 -10.3647
v  -21.0469 39.6133 -1.6951
# 25 vertices

vn -1.0000 -0.0000 -0.0000
# 1 vertex normals

vt 0.0000 0.2500 0.0000
vt 0.0000 0.0000 0.0000
vt 0.2500 0.0000 0.0000
vt 0.2500 0.2500 0.0000
vt 0.5000 0.0000 0.0000
vt 0.5000 0.2500 0.0000
vt 0.7500 0.0000 0.0000
vt 0.7500 0.2500 0.0000
vt 1.0000 0.0000 0.0000
vt 1.0000 0.2500 0.0000
vt 0.0000 0.5000 0.0000
vt 0.2500 0.5000 0.0000
vt 0.5000 0.5000 0.0000
vt 0.7500 0.5000 0.0000
vt 1.0000 0.5000 0.0000
vt 0.0000 0.7500 0.0000
vt 0.2500 0.7500 0.0000
vt 0.5000 0.7500 0.0000
vt 0.7500 0.7500 0.0000
vt 1.0000 0.7500 0.0000
vt 0.0000 1.0000 0.0000
vt 0.2500 1.0000 0.0000
vt 0.5000 1.0000 0.0000
vt 0.7500 1.0000 0.0000
vt 1.0000 1.0000 0.0000
# 25 texture coords

g Plane001
usemtl 01___Default
s 1
f 9/5/7 10/6/7 11/7/7 12/8/7 
f 12/8/7 11/7/7 13/9/7 14/10/7 
f 14/10/7 13/9/7 15/11/7 16/12/7 
f 16/12/7 15/11/7 17/13/7 18/14/7 
f 19/15/7 9/5/7 12/8/7 20/16/7 
f 20/16/7 12/8/7 14/10/7 21/17/7 
f 21/17/7 14/10/7 16/12/7 22/18/7 
f 22/18/7 16/12/7 18/14/7 23/19/7 
f 24/20/7 19/15/7 20/16/7 25/21/7 
f 25/21/7 20/16/7 21/17/7 26/22/7 
f 26/22/7 21/17/7 22/18/7 27/23/7 
f 27/23/7 22/18/7 23/19/7 28/24/7 
f 29/25/7 24/20/7 25/21/7 30/26/7 
f 30/26/7 25/21/7 26/22/7 31/27/7 
f 31/27/7 26/22/7 27/23/7 32/28/7 
f 32/28/7 27/23/7 28/24/7 33/29/7 
# 16 polygons

#
# object Plane002
#

v  -20.5280 8.9958 16.3248
v  -20.5280 6.0063 16.3248
v  -20.5280 6.0063 21.8555
v  -20.5280 8.9958 21.8555
v  -20.5280 6.0063 27.3861
v  -20.5280 8.9958 27.3861
v  -20.5280 6.0063 32.9168
v  -20.5280 8.9958 32.9168
v  -20.5280 6.0063 38.4474
v  -20.5280 8.9958 38.4474
v  -20.5280 11.9854 16.3248
v  -20.5280 11.9854 21.8555
v  -20.5280 11.9854 27.3861
v  -20.5280 11.9854 32.9168
v  -20.5280 11.9854 38.4474
v  -20.5280 14.9749 16.3248
v  -20.5280 14.9749 21.8555
v  -20.5280 14.9749 27.3861
v  -20.5280 14.9749 32.9168
v  -20.5280 14.9749 38.4474
v  -20.5280 17.9645 16.3248
v  -20.5280 17.9645 21.8555
v  -20.5280 17.9645 27.3861
v  -20.5280 17.9645 32.9168
v  -20.5280 17.9645 38.4474
# 25 vertices

vn -1.0000 -0.0000 -0.0000
# 1 vertex normals

vt 0.0000 0.2500 0.0000
vt 0.0000 0.0000 0.0000
vt 0.2500 0.0000 0.0000
vt 0.2500 0.2500 0.0000
vt 0.5000 0.0000 0.0000
vt 0.5000 0.2500 0.0000
vt 0.7500 0.0000 0.0000
vt 0.7500 0.2500 0.0000
vt 1.0000 0.0000 0.0000
vt 1.0000 0.2500 0.0000
vt 0.0000 0.5000 0.0000
vt 0.2500 0.5000 0.0000
vt 0.5000 0.5000 0.0000
vt 0.7500 0.5000 0.0000
vt 1.0000 0.5000 0.0000
vt 0.0000 0.7500 0.0000
vt 0.2500 0.7500 0.0000
vt 0.5000 0.7500 0.0000
vt 0.7500 0.7500 0.0000
vt 1.0000 0.7500 0.0000
vt 0.0000 1.0000 0.0000
vt 0.2500 1.0000 0.0000
vt 0.5000 1.0000 0.0000
vt 0.7500 1.0000 0.0000
vt 1.0000 1.0000 0.0000
# 25 texture coords

g Plane002
usemtl 02___Default
s 1
f 34/30/8 35/31/8 36/32/8 37/33/8 
f 37/33/8 36/32/8 38/34/8 39/35/8 
f 39/35/8 38/34/8 40/36/8 41/37/8 
f 41/37/8 40/36/8 42/38/8 43/39/8 
f 44/40/8 34/30/8 37/33/8 45/41/8 
f 45/41/8 37/33/8 39/35/8 46/42/8 
f 46/42/8 39/35/8 41/37/8 47/43/8 
f 47/43/8 41/37/8 43/39/8 48/44/8 
f 49/45/8 44/40/8 45/41/8 50/46/8 
f 50/46/8 45/41/8 46/42/8 51/47/8 
f 51/47/8 46/42/8 47/43/8 52/48/8 
f 52/48/8 47/43/8 48/44/8 53/49/8 
f 54/50/8 49/45/8 50/46/8 55/51/8 
f 55/51/8 50/46/8 51/47/8 56/52/8 
f 56/52/8 51/47/8 52/48/8 57/53/8 
f 57/53/8 52/48/8 53/49/8 58/54/8 
# 16 polygons

